<?xml version="1.0" encoding="utf-8"?>
<!-- Generator: Adobe Illustrator 24.1.1, SVG Export Plug-In . SVG Version: 6.00 Build 0)  -->
<svg version="1.1" id="Layer_1" xmlns="http://www.w3.org/2000/svg" xmlns:xlink="http://www.w3.org/1999/xlink" x="0px" y="0px"
	 viewBox="0 0 512 512" style="enable-background:new 0 0 512 512;" xml:space="preserve">
<style type="text/css">
	.st0{fill-rule:evenodd;clip-rule:evenodd;}
</style>
<g>
	<path class="st0" d="M16,272c8.8,0,16,7.2,16,16v112c0,17.7,14.3,32,32,32h384c17.7,0,32-14.3,32-32V288c0-8.8,7.2-16,16-16
		s16,7.2,16,16v112c0,35.4-28.6,64-64,64H64c-35.4,0-64-28.6-64-64V288C0,279.2,7.2,272,16,272z"/>
	<path class="st0" d="M160,256c6.3-6.3,16.4-6.3,22.6,0l73.4,73.4l73.4-73.4c6.1-6.4,16.3-6.5,22.6-0.4c6.4,6.1,6.5,16.3,0.4,22.6
		l-0.4,0.4l-84.7,84.7c-6.3,6.3-16.4,6.3-22.6,0l0,0L160,278.6C153.8,272.4,153.8,262.3,160,256z"/>
	<path class="st0" d="M256,48c8.8,0,16,7.2,16,16v256c0,8.8-7.2,16-16,16c-8.8,0-16-7.2-16-16V64C240,55.2,247.2,48,256,48z"/>
</g>
</svg>
